# xmcd CD database file
#
# Track frame offsets:
#	182
#	13692
#	26302
#	38590
#	53577
#	66497
#	79570
#	95507
#	106195
#	123215
#	137947
#	150737
#	170952
#	190885
#	208092
#	221652
#	236830
#
# Disc length: 3324 seconds
#
# Revision: 2
# Processed by: cddbd v1.5.2PL0 Copyright (c) Steve Scherf et al.
# Submitted via: CDex 1.51
#
DISCID=ea0cfa11
DTITLE=Evelyn Bury - Australian Country
DYEAR=1900
DGENRE=Country
TTITLE0=Mandrake
TTITLE1=Where The White Faced Cattle Roam
TTITLE2=The Faithfull Old Dog
TTITLE3=Hobnail Express
TTITLE4=The Days Of Old Khancoban
TTITLE5=Walk A country Mile
TTITLE6=Little Boy Lost
TTITLE7=Wobbly Boot Hotel
TTITLE8=Now I'm Easy
TTITLE9=Old Aunt Eliza
TTITLE10=Goin' Rodeoin' Again
TTITLE11=Cootamundra Cattle
TTITLE12=Murray River Blues
TTITLE13=When We First Fell In love
TTITLE14=A Rosebush For Mamma
TTITLE15=Cyclone Season
TTITLE16=The Boys From the Bush
EXTD=
EXTT0=
EXTT1=
EXTT2=
EXTT3=
EXTT4=
EXTT5=
EXTT6=
EXTT7=
EXTT8=
EXTT9=
EXTT10=
EXTT11=
EXTT12=
EXTT13=
EXTT14=
EXTT15=
EXTT16=
PLAYORDER=
